<?xml version="1.0" encoding="utf-8"?>
<!-- Generator: Adobe Illustrator 27.5.0, SVG Export Plug-In . SVG Version: 6.00 Build 0)  -->
<svg version="1.1" xmlns="http://www.w3.org/2000/svg" xmlns:xlink="http://www.w3.org/1999/xlink" x="0px" y="0px"
	 viewBox="0 0 500 500" style="enable-background:new 0 0 500 500;" xml:space="preserve">
<g id="Background_Complete">
	<g>
		<rect y="382.398" style="fill:#EBEBEB;" width="500" height="0.25"/>
		<rect x="416.779" y="398.494" style="fill:#EBEBEB;" width="33.122" height="0.25"/>
		<rect x="322.527" y="401.208" style="fill:#EBEBEB;" width="8.693" height="0.25"/>
		<rect x="396.586" y="389.208" style="fill:#EBEBEB;" width="19.192" height="0.25"/>
		<rect x="52.459" y="390.888" style="fill:#EBEBEB;" width="43.193" height="0.25"/>
		<rect x="104.556" y="390.888" style="fill:#EBEBEB;" width="6.333" height="0.25"/>
		<rect x="131.471" y="395.111" style="fill:#EBEBEB;" width="93.676" height="0.25"/>
		<path style="fill:#EBEBEB;" d="M237.014,337.8H43.915c-3.147,0-5.708-2.561-5.708-5.708V60.66c0-3.147,2.561-5.708,5.708-5.708
			h193.099c3.146,0,5.707,2.561,5.707,5.708v271.432C242.721,335.239,240.16,337.8,237.014,337.8z M43.915,55.203
			c-3.01,0-5.458,2.448-5.458,5.458v271.432c0,3.01,2.448,5.458,5.458,5.458h193.099c3.009,0,5.457-2.448,5.457-5.458V60.66
			c0-3.009-2.448-5.458-5.457-5.458H43.915z"/>
		<path style="fill:#EBEBEB;" d="M453.31,337.8H260.212c-3.147,0-5.707-2.561-5.707-5.708V60.66c0-3.147,2.561-5.708,5.707-5.708
			H453.31c3.148,0,5.708,2.561,5.708,5.708v271.432C459.019,335.239,456.458,337.8,453.31,337.8z M260.212,55.203
			c-3.009,0-5.457,2.448-5.457,5.458v271.432c0,3.01,2.448,5.458,5.457,5.458H453.31c3.01,0,5.458-2.448,5.458-5.458V60.66
			c0-3.009-2.448-5.458-5.458-5.458H260.212z"/>
	</g>
	<g>
		<g>
			
				<rect x="54.974" y="309.956" transform="matrix(-1 -1.224647e-16 1.224647e-16 -1 137.1361 692.3535)" style="fill:#E6E6E6;" width="27.188" height="72.442"/>
			<polygon style="fill:#F0F0F0;" points="60.138,382.398 54.974,382.398 54.974,363.254 65.552,363.254 			"/>
			
				<rect x="210.102" y="309.956" transform="matrix(-1 -1.224647e-16 1.224647e-16 -1 447.3917 692.3535)" style="fill:#E6E6E6;" width="27.188" height="72.442"/>
			
				<rect x="54.974" y="309.956" transform="matrix(-1 -1.224647e-16 1.224647e-16 -1 269.5825 687.1285)" style="fill:#F0F0F0;" width="159.635" height="67.217"/>
			<polygon style="fill:#F0F0F0;" points="209.445,382.398 214.609,382.398 214.609,363.254 204.03,363.254 			"/>
			<g>
				<path style="fill:#E6E6E6;" d="M209.8,369.08h-48.32v-51.716h48.32V369.08z M162.48,368.08h46.32v-49.716h-46.32V368.08z"/>
			</g>
			<g>
				<path style="fill:#E6E6E6;" d="M158.951,369.08h-48.32v-51.716h48.32V369.08z M111.631,368.08h46.32v-49.716h-46.32V368.08z"/>
			</g>
			<g>
				<path style="fill:#E6E6E6;" d="M108.103,369.08H59.781v-51.716h48.321V369.08z M60.781,368.08h46.321v-49.716H60.781V368.08z"/>
			</g>
		</g>
		<g>
			<g>
				<g>
					<g>
						
							<rect x="271.464" y="95.251" transform="matrix(-1 -1.224647e-16 1.224647e-16 -1 703.1338 326.9102)" style="fill:#E6E6E6;" width="160.206" height="136.409"/>
						
							<rect x="267.858" y="95.251" transform="matrix(-1 -1.224647e-16 1.224647e-16 -1 697.9615 326.9102)" style="fill:#F5F5F5;" width="162.245" height="136.409"/>
						
							<rect x="287.323" y="88.805" transform="matrix(-1.836970e-16 1 -1 -1.836970e-16 512.436 -185.5257)" style="fill:#FAFAFA;" width="123.316" height="149.301"/>
						<polygon style="fill:#FFFFFF;" points="405.311,225.113 346.55,101.797 326.591,101.797 385.352,225.113 						"/>
						<polygon style="fill:#FFFFFF;" points="379.695,225.113 320.933,101.797 307.19,101.797 365.951,225.113 						"/>
						
							<rect x="264.249" y="159.595" transform="matrix(-1.836970e-16 1 -1 -1.836970e-16 489.3623 -162.4521)" style="fill:#E6E6E6;" width="123.316" height="7.721"/>
						
							<rect x="315.568" y="159.595" transform="matrix(-1.836970e-16 1 -1 -1.836970e-16 540.6818 -213.7715)" style="fill:#E6E6E6;" width="123.316" height="7.721"/>
						
							<rect x="257.327" y="158.219" transform="matrix(-1.836970e-16 1 -1 -1.836970e-16 486.5939 -160.3973)" style="fill:#F5F5F5;" width="132.337" height="9.759"/>
						
							<rect x="308.646" y="158.219" transform="matrix(-1.836970e-16 1 -1 -1.836970e-16 537.9133 -211.7167)" style="fill:#F5F5F5;" width="132.337" height="9.759"/>
						
							<rect x="213.016" y="163.112" transform="matrix(-1.836970e-16 1 -1 -1.836970e-16 438.1288 -111.2186)" style="fill:#E6E6E6;" width="123.316" height="0.687"/>
					</g>
				</g>
			</g>
			<g>
				<g>
					<path style="fill:#E6E6E6;" d="M265.141,86.832h173.565c0.459,0,0.835,0.376,0.835,0.835l0,0c0,0.459-0.376,0.835-0.835,0.835
						H265.141c-0.459,0-0.835-0.376-0.835-0.835l0,0C264.306,87.208,264.682,86.832,265.141,86.832z"/>
					<path style="fill:#E6E6E6;" d="M431.67,92.341L431.67,92.341c0.62,0,1.127-0.507,1.127-1.127v-2.42
						c0-0.62-0.507-1.127-1.127-1.127l0,0c-0.62,0-1.127,0.507-1.127,1.127v2.42C430.543,91.834,431.05,92.341,431.67,92.341z"/>
					<path style="fill:#E6E6E6;" d="M277.728,92.341L277.728,92.341c0.62,0,1.127-0.507,1.127-1.127v-2.42
						c0-0.62-0.507-1.127-1.127-1.127l0,0c-0.62,0-1.127,0.507-1.127,1.127v2.42C276.601,91.834,277.108,92.341,277.728,92.341z"/>
				</g>
				
					<rect x="265.408" y="87.667" transform="matrix(-1 -1.224647e-16 1.224647e-16 -1 692.9419 243.0358)" style="opacity:0.6;fill:#E0E0E0;" width="162.126" height="67.702"/>
			</g>
		</g>
		<g>
			<path style="fill:#FAFAFA;" d="M113.245,309.956H90.572c-2.411,0-4.366-1.955-4.366-4.366v-39.172
				c0-2.411,1.955-4.366,4.366-4.366h22.673c2.411,0,4.366,1.955,4.366,4.366v39.172
				C117.611,308.001,115.657,309.956,113.245,309.956z"/>
			<path style="fill:#E6E6E6;" d="M116.146,262.617H87.672c-0.81,0-1.466-0.656-1.466-1.466v-1.186c0-0.81,0.656-1.466,1.466-1.466
				h28.474c0.81,0,1.466,0.656,1.466,1.466v1.186C117.611,261.961,116.955,262.617,116.146,262.617z"/>
		</g>
		<g>
			<path style="fill:#F0F0F0;" d="M199.331,309.956h-16.456c-1.75,0-3.169-1.419-3.169-3.169v-28.431
				c0-1.75,1.419-3.169,3.169-3.169h16.456c1.75,0,3.169,1.419,3.169,3.169v28.431C202.5,308.537,201.081,309.956,199.331,309.956z"
				/>
			<path style="fill:#E6E6E6;" d="M201.436,275.598H180.77c-0.587,0-1.064-0.476-1.064-1.064v-0.861
				c0-0.588,0.476-1.064,1.064-1.064h20.666c0.588,0,1.064,0.476,1.064,1.064v0.861C202.5,275.121,202.024,275.598,201.436,275.598z
				"/>
		</g>
		<g>
			<path style="fill:#F0F0F0;" d="M147.122,309.956h-31.158c-3.314,0-6-2.686-6-6v-15.935c0-3.314,2.686-6,6-6h31.158
				c3.314,0,6,2.686,6,6v15.935C153.122,307.269,150.436,309.956,147.122,309.956z"/>
			<path style="fill:#F5F5F5;" d="M151.108,282.799h-39.13c-1.113,0-2.014-0.902-2.014-2.014v-1.629
				c0-1.113,0.902-2.014,2.014-2.014h39.13c1.113,0,2.014,0.902,2.014,2.014v1.629C153.122,281.897,152.22,282.799,151.108,282.799z
				"/>
		</g>
		<g>
			
				<rect x="282.435" y="299.755" transform="matrix(-1 -1.224647e-16 1.224647e-16 -1 569.9082 682.1528)" style="fill:#E6E6E6;" width="5.038" height="82.643"/>
			<g>
				<g>
					<rect x="400.666" y="283.672" style="fill:#E6E6E6;" width="27.29" height="16.083"/>
					
						<rect x="264.985" y="283.672" transform="matrix(-1 -1.224647e-16 1.224647e-16 -1 665.6518 583.4267)" style="fill:#F5F5F5;" width="135.681" height="16.083"/>
				</g>
			</g>
			<g>
				<g>
					<rect x="400.666" y="326.618" style="fill:#E6E6E6;" width="27.29" height="16.083"/>
					
						<rect x="264.985" y="326.618" transform="matrix(-1 -1.224647e-16 1.224647e-16 -1 665.6518 669.3197)" style="fill:#F5F5F5;" width="135.681" height="16.083"/>
				</g>
			</g>
			
				<rect x="418.116" y="299.755" transform="matrix(-1 -1.224647e-16 1.224647e-16 -1 841.2701 682.1528)" style="fill:#E6E6E6;" width="5.038" height="82.643"/>
			
				<rect x="395.628" y="299.755" transform="matrix(-1 -1.224647e-16 1.224647e-16 -1 796.2946 682.1528)" style="fill:#F5F5F5;" width="5.038" height="82.643"/>
			
				<rect x="264.985" y="299.755" transform="matrix(-1 -1.224647e-16 1.224647e-16 -1 535.009 682.1528)" style="fill:#F5F5F5;" width="5.038" height="82.643"/>
		</g>
		<g>
			<g>
				
					<rect x="69.678" y="102.101" transform="matrix(-1 -1.224647e-16 1.224647e-16 -1 203.4984 276.136)" style="fill:#F0F0F0;" width="64.142" height="71.934"/>
				
					<rect x="65.155" y="102.101" transform="matrix(-1 -1.224647e-16 1.224647e-16 -1 197.9769 276.136)" style="fill:#F5F5F5;" width="67.666" height="71.934"/>
				
					<rect x="68.69" y="109.904" transform="matrix(6.123234e-17 -1 1 6.123234e-17 -39.0794 237.0565)" style="fill:#FFFFFF;" width="60.597" height="56.329"/>
				<g>
					<path style="fill:#F0F0F0;" d="M89.648,120.599c-4.437,0-8.653,2.604-10.472,6.923c-2.411,5.724,0.311,12.395,6.049,14.806
						l41.933,17.646v-24.553l-33.161-13.948C92.576,120.88,91.097,120.599,89.648,120.599z"/>
				</g>
			</g>
		</g>
		<g>
			<g>
				
					<rect x="154.858" y="138.068" transform="matrix(-1 -1.224647e-16 1.224647e-16 -1 373.858 348.07)" style="fill:#F0F0F0;" width="64.142" height="71.934"/>
				
					<rect x="150.335" y="138.068" transform="matrix(-1 -1.224647e-16 1.224647e-16 -1 368.3365 348.07)" style="fill:#F5F5F5;" width="67.666" height="71.934"/>
				
					<rect x="153.87" y="145.87" transform="matrix(6.123234e-17 -1 1 6.123234e-17 10.1333 358.2032)" style="fill:#FFFFFF;" width="60.597" height="56.329"/>
				<path style="fill:#F0F0F0;" d="M190.509,167.165l-34.503-14.519v25.132l25.525,10.734c5.875,2.468,12.702-0.318,15.17-6.192
					C199.169,176.461,196.383,169.633,190.509,167.165z"/>
			</g>
		</g>
	</g>
</g>
<g id="Background_Simple" style="display:none;">
	<g style="display:inline;">
		<path style="fill:#407BFF;" d="M400,135.321c-9.909-34.364-53.467-55.316-91.219-48.06c-32.931,6.329-44.905,33.053-81.923,31.545
			c-34.49-1.406-65.635-13.179-95.941,14.075c-23.84,21.44-21.93,51.639-16.653,81.442c14.432,81.501,63.064,107.791,141.384,83.922
			c37.435-11.409,82.243-30.079,111.972-55.947C403.294,211.257,412.287,177.937,400,135.321z"/>
		<path style="opacity:0.9;fill:#FFFFFF;" d="M400,135.321c-9.909-34.364-53.467-55.316-91.219-48.06
			c-32.931,6.329-44.905,33.053-81.923,31.545c-34.49-1.406-65.635-13.179-95.941,14.075c-23.84,21.44-21.93,51.639-16.653,81.442
			c14.432,81.501,63.064,107.791,141.384,83.922c37.435-11.409,82.243-30.079,111.972-55.947
			C403.294,211.257,412.287,177.937,400,135.321z"/>
	</g>
</g>
<g id="Shadow_1_">
	<ellipse id="_x3C_Path_x3E__89_" style="fill:#F5F5F5;" cx="250" cy="416.238" rx="193.889" ry="11.323"/>
</g>
<g id="Character_1_">
	<g>
		<g>
			<path style="fill:#263238;" d="M194.071,116.206C195.03,112,205.53,108,214.53,114.167c9,6.167,11.384,16.748,8.5,25.282
				c-4.833,14.301,20.383,13.772,26.221,37.884c4.61,19.043,0.334,45.909-25.391,44.448c-39.27-2.23-35.879-40.615-37.605-60.781
				C184.53,140.833,163.112,118.245,194.071,116.206z"/>
			<path style="fill:#FFB573;" d="M181.097,170.059c-0.166,2.919-0.509,5.593-0.892,8.365c-0.391,2.748-0.906,5.476-1.501,8.197
				c-0.608,2.718-1.252,5.436-2.11,8.117c-0.813,2.688-1.777,5.356-2.916,7.978l-0.882,1.96c-0.124,0.298-0.362,0.732-0.551,1.1
				c-0.201,0.38-0.416,0.714-0.625,1.07c-0.851,1.368-1.788,2.536-2.737,3.651c-1.899,2.223-3.926,4.169-5.998,6.025
				c-4.192,3.667-8.51,6.967-13.156,9.96l-2.674-3.451c1.884-1.824,3.8-3.704,5.654-5.583c1.871-1.868,3.684-3.785,5.419-5.727
				c1.745-1.927,3.406-3.908,4.853-5.894c0.718-0.992,1.364-2.004,1.876-2.954c0.112-0.233,0.249-0.474,0.344-0.697
				c0.097-0.241,0.184-0.397,0.302-0.726l0.672-1.76c1.738-4.729,2.971-9.755,3.977-14.832c0.511-2.541,0.874-5.12,1.258-7.691
				c0.371-2.55,0.664-5.217,0.889-7.661L181.097,170.059z"/>
			<path style="fill:#407BFF;" d="M175.098,159.555c-3.552,0.904-6.037,15.523-6.037,15.523l13.586,9.239
				c0,0,5.589-17.33,2.856-21.235C182.657,159.015,180.282,158.235,175.098,159.555z"/>
			<polygon style="opacity:0.2;" points="175.419,162.82 172.69,177.555 178.192,181.286 			"/>
			<path style="fill:#FFB573;" d="M148.68,221.781l-9.152,1.461l5.217,5.782c0,0,5.395-1.233,6.341-4.689L148.68,221.781z"/>
			<g>
				<polygon style="fill:#FFB573;" points="135.199,224.387 140.419,230.041 144.745,229.025 139.528,223.242 				"/>
			</g>
			<polygon style="fill:#FFB573;" points="194.317,405.604 185.698,405.604 185.123,385.644 193.742,385.644 			"/>
			<polygon style="fill:#FFB573;" points="253.922,380.202 245.943,383.46 235.833,366.028 243.813,362.77 			"/>
			<path style="fill:#263238;" d="M244.44,382.264l8.324-4.947c0.303-0.18,0.674-0.116,0.892,0.155l4.862,6.023
				c0.504,0.625,0.301,1.62-0.405,2.023c-2.932,1.675-4.432,2.335-8.093,4.511c-2.252,1.338-7.547,5.924-10.657,7.772
				c-3.042,1.807-5.103-1.129-3.974-2.177c5.065-4.699,7.102-9.364,8.082-12.169C243.649,382.949,243.997,382.527,244.44,382.264z"
				/>
			<path style="fill:#263238;" d="M185.403,404.606h9.683c0.352,0,0.638,0.245,0.688,0.589l1.103,7.661
				c0.114,0.795-0.569,1.547-1.382,1.533c-3.376-0.058-5.003-0.256-9.261-0.256c-2.62,0-8.039,0.272-11.656,0.272
				c-3.538,0-3.811-3.577-2.304-3.901c6.755-1.453,9.413-3.456,11.688-5.367C184.373,404.792,184.887,404.606,185.403,404.606z"/>
			<g style="opacity:0.2;">
				<polygon points="185.125,385.65 185.42,395.938 194.042,395.938 193.747,385.65 				"/>
				<polygon points="243.817,362.774 235.834,366.033 241.049,375.017 249.032,371.758 				"/>
			</g>
			<path style="fill:#407BFF;" d="M175.098,159.555c0,0-4.106,1.446,4.119,52.02c13.89,0,28.246,0,35.005,0
				c-0.587-14.247-0.604-23.032,6.205-52.27c0,0-7.334-1.595-14.865-1.958c-5.891-0.284-10.717-0.472-15.895,0.001
				C182.84,157.971,175.098,159.555,175.098,159.555z"/>
			<path style="opacity:0.2;" d="M217.54,170.88c-3.17,0.79-6.1,4.25-5.75,10.62c0.21,3.82,1.96,6.71,2.92,8.02
				c0.56-4.9,1.5-10.59,2.99-17.87L217.54,170.88z"/>
			<path style="fill:#FAFAFA;" d="M191.51,171.333c0,0,4.548,2.806,5.741,6.972c4.936-3.617,11.65-13.689,11.916-19.714
				c0.032-0.733-0.59-1.326-1.324-1.337c-1.435-0.022-2.279,0.093-2.279,0.093L191.51,171.333z"/>
			<path style="fill:#FAFAFA;" d="M191.51,171.333c0,0-4.548,2.806-5.74,6.972c-5.307-3.889-2.363-16.722,0.677-20.997
				c2.194-0.143,3.221,0.039,3.221,0.039L191.51,171.333z"/>
			<path style="fill:#FFB573;" d="M203.988,139.449c-1.003,5.115-2.003,14.485,1.575,17.898c0,0-4.727,9.07-14.053,13.986
				c-7.091-5.667-1.842-13.986-1.842-13.986c5.703-1.362,5.556-5.593,4.563-9.567L203.988,139.449z"/>
			<path style="opacity:0.2;" d="M200.01,142.848l-5.775,4.928c0.238,0.941,0.424,1.894,0.49,2.821
				c2.179-0.315,5.605-2.171,6.073-4.54C201.019,144.935,200.195,143.378,200.01,142.848z"/>
			<path style="fill:#FFB573;" d="M212.562,131.234c-2.365,8.221-3.19,11.751-8.35,15.093c-7.762,5.027-17.343,0.325-17.482-8.436
				c-0.125-7.886,3.762-20.005,12.658-21.508C208.152,114.901,214.927,123.013,212.562,131.234z"/>
			<path style="fill:#263238;" d="M194.808,117.111c0.389,2.778,15.611,11.722,18.5,7.056c2.889-4.667-1.268-8.167-7.745-9.056
				S194.808,117.111,194.808,117.111z"/>
			<path style="fill:#263238;" d="M204.725,118.616c-1.87,2.466,2.09,20.18,7.763,18.515c5.673-1.664,5.409-7.337,1.469-12.57
				C210.016,119.327,204.725,118.616,204.725,118.616z"/>
			<g>
				<path style="fill:#407BFF;" d="M179.217,211.576c0,0-6.798,66.394-6.234,92.678c0.588,27.339,10.606,89.692,10.606,89.692
					h11.655c0,0-1.844-60.755-0.814-87.605c1.123-29.271,10.421-94.765,10.421-94.765H179.217z"/>
				<path style="opacity:0.4;" d="M179.217,211.576c0,0-6.798,66.394-6.234,92.678c0.588,27.339,10.606,89.692,10.606,89.692h11.655
					c0,0-1.844-60.755-0.814-87.605c1.123-29.271,10.421-94.765,10.421-94.765H179.217z"/>
			</g>
			<polygon style="fill:#263238;" points="196.254,394.363 182.579,394.363 181.576,390.001 196.89,389.468 			"/>
			<path style="opacity:0.2;" d="M194.316,228.095c-8.598,17.296-1.726,48.848,1.314,60.586c1.559-17.63,4.188-39.18,6.237-55.006
				C200.564,224.721,198.281,220.121,194.316,228.095z"/>
			<g>
				<path style="fill:#407BFF;" d="M188.461,211.576c0,0,7.93,69.025,13.918,91.185c7.11,26.309,35.99,71.198,35.99,71.198
					l10.882-4.442c0,0-18.651-51.111-24.086-64.971c-11.601-29.582-1.671-73.666-10.942-92.97H188.461z"/>
				<path style="opacity:0.4;" d="M188.461,211.576c0,0,7.93,69.025,13.918,91.185c7.11,26.309,35.99,71.198,35.99,71.198
					l10.882-4.442c0,0-18.651-51.111-24.086-64.971c-11.601-29.582-1.671-73.666-10.942-92.97H188.461z"/>
			</g>
			<polygon style="fill:#263238;" points="250.737,369.574 237.237,375.085 234.067,371.428 249.655,364.229 			"/>
			<g>
				<path style="fill:#263238;" d="M91.61,123.761c-24.317,21.521-26.579,58.687-5.057,83.004
					c21.521,24.317,58.681,26.584,82.998,5.062c24.317-21.521,26.589-58.686,5.068-83.003
					C153.098,104.507,115.927,102.24,91.61,123.761z M163.385,204.86c-20.468,18.115-51.749,16.206-69.864-4.261
					c-18.119-20.473-16.212-51.755,4.256-69.869c20.473-18.12,51.755-16.212,69.874,4.262
					C185.766,155.458,183.858,186.74,163.385,204.86z"/>
				<path style="opacity:0.3;fill:#407BFF;" d="M127.819,213.066c-25.001-1.525-44.035-23.031-42.51-48.032
					c1.525-25.008,23.032-44.042,48.033-42.517c25.008,1.525,44.042,23.032,42.516,48.04
					C174.334,195.558,152.827,214.592,127.819,213.066z"/>
				<g style="opacity:0.5;">
					<path style="fill:#FAFAFA;" d="M133.341,122.52c-0.286-0.018-0.565-0.035-0.852-0.044l-47.118,41.7
						c-0.025,0.286-0.043,0.572-0.06,0.859c-0.623,10.224,2.199,19.865,7.456,27.799l67.269-59.535
						C152.808,127.117,143.573,123.144,133.341,122.52z"/>
					<path style="fill:#FAFAFA;" d="M164.391,137.557l-67.926,60.116c2.266,2.593,4.827,4.924,7.64,6.945l66.25-58.634
						C168.692,142.947,166.689,140.121,164.391,137.557z"/>
				</g>
				<path style="fill:#263238;" d="M176.85,212.271l-7.74,6.85c-1.176,1.041-2.973,0.931-4.013-0.245l0,0
					c-1.041-1.176-0.931-2.973,0.245-4.013l7.74-6.85c1.176-1.041,2.973-0.931,4.013,0.245l0,0
					C178.135,209.433,178.026,211.23,176.85,212.271z"/>
				<path style="fill:#263238;" d="M173.999,210.997c5.834,5.133,11.414,10.492,16.918,15.918
					c5.499,5.43,10.89,10.955,16.212,16.542c5.316,5.592,10.545,11.262,15.722,16.976c4.858,5.997,11.481,10.432,12.471,19.854
					c0.275,2.616-1.623,4.959-4.239,5.234c-0.532,0.056-1.073,0.016-1.567-0.095c-9.231-2.128-12.829-9.241-18.191-14.792
					c-5.043-5.834-10.035-11.712-14.94-17.669c-4.899-5.961-9.728-11.984-14.449-18.102c-4.717-6.123-9.358-12.312-13.744-18.727
					c-1.218-1.781-0.761-4.213,1.02-5.431C170.718,209.676,172.689,209.846,173.999,210.997z"/>
			</g>
			<path style="fill:#263238;" d="M198.778,130.493c-0.151,0.679-0.633,1.149-1.076,1.05c-0.444-0.099-0.681-0.729-0.53-1.407
				c0.151-0.679,0.633-1.149,1.076-1.05C198.692,129.184,198.929,129.814,198.778,130.493z"/>
			<path style="fill:#263238;" d="M191.108,128.787c-0.151,0.679-0.633,1.149-1.076,1.05c-0.444-0.099-0.681-0.729-0.53-1.407
				c0.151-0.679,0.633-1.149,1.076-1.05C191.021,127.479,191.258,128.109,191.108,128.787z"/>
			<path style="fill:#263238;" d="M190.765,127.461l-1.526-0.832C189.24,126.629,189.793,128.088,190.765,127.461z"/>
			<path style="fill:#ED893E;" d="M193.201,130.536c0,0-1.801,2.666-3.382,3.793c0.71,1.035,2.318,0.992,2.318,0.992
				L193.201,130.536z"/>
			<path style="fill:#263238;" d="M195.248,138.801c-0.323-0.021-0.662-0.068-1.016-0.147c-0.11-0.024-0.18-0.133-0.156-0.243
				c0.025-0.111,0.135-0.185,0.244-0.155c2.981,0.657,4.832-1.11,4.85-1.128c0.081-0.079,0.21-0.078,0.289,0.003
				c0.079,0.08,0.077,0.21-0.003,0.289C199.383,137.491,197.834,138.972,195.248,138.801z"/>
			<path style="fill:#FFB573;" d="M213.108,139.435c-0.982,1.476-2.555,2.361-3.988,2.625c-2.156,0.397-3.037-1.579-2.273-3.51
				c0.688-1.738,2.639-4.04,4.723-3.562C213.624,135.458,214.231,137.747,213.108,139.435z"/>
			<path style="fill:#263238;" d="M201.973,127.496c-0.164,0.053-0.35-0.001-0.456-0.148c-1.11-1.528-3.543-1.511-3.567-1.511
				c-0.225,0.003-0.411-0.177-0.414-0.402c-0.004-0.225,0.174-0.411,0.402-0.414c0.117-0.002,2.882-0.019,4.24,1.847
				c0.132,0.182,0.092,0.438-0.09,0.57C202.052,127.464,202.013,127.483,201.973,127.496z"/>
			<path style="fill:#263238;" d="M189.511,123.169c-0.139-0.009-0.27-0.089-0.338-0.222c-0.102-0.201-0.022-0.446,0.179-0.549
				c2.012-1.024,3.658-0.102,3.726-0.062c0.196,0.113,0.263,0.362,0.15,0.558c-0.112,0.195-0.36,0.261-0.557,0.151
				c-0.066-0.037-1.351-0.732-2.949,0.082C189.655,123.159,189.582,123.173,189.511,123.169z"/>
			<path style="fill:#407BFF;" d="M241.133,385.534c-0.034-0.004-0.068-0.009-0.102-0.016c-0.383-0.079-0.667-0.334-0.845-0.76
				c-0.134-0.321-0.044-0.558,0.056-0.7c0.63-0.902,3.744-0.787,4.096-0.771c0.088,0.002,0.153,0.056,0.182,0.132
				c0.029,0.076,0.01,0.162-0.049,0.219C243.673,384.409,242.2,385.658,241.133,385.534z M243.826,383.681
				c-1.246-0.009-2.917,0.135-3.249,0.61c-0.042,0.06-0.081,0.149-0.014,0.309c0.124,0.297,0.305,0.467,0.551,0.517
				C241.696,385.247,242.689,384.705,243.826,383.681z"/>
			<path style="fill:#407BFF;" d="M244.016,383.676c-1.064-0.123-2.956-0.854-3.253-1.696c-0.063-0.179-0.108-0.526,0.3-0.84
				c0.259-0.199,0.555-0.267,0.882-0.207c1.229,0.235,2.507,2.362,2.561,2.453c0.037,0.063,0.038,0.14,0.003,0.204
				c-0.035,0.063-0.101,0.103-0.174,0.105C244.24,383.696,244.133,383.69,244.016,383.676z M241.807,381.325
				c-0.184-0.021-0.346,0.024-0.495,0.139c-0.208,0.161-0.197,0.288-0.164,0.382c0.2,0.569,1.754,1.271,2.793,1.415
				c-0.463-0.686-1.34-1.786-2.073-1.926C241.847,381.33,241.826,381.327,241.807,381.325z"/>
			<path style="fill:#407BFF;" d="M182.167,406.113c-0.857,0-1.648-0.133-2.091-0.531c-0.281-0.253-0.405-0.587-0.368-0.994
				c0.022-0.243,0.142-0.431,0.346-0.542c1.058-0.582,4.492,1.176,4.88,1.378c0.077,0.04,0.12,0.124,0.108,0.21
				c-0.012,0.086-0.077,0.155-0.162,0.172C184.147,405.95,183.116,406.113,182.167,406.113z M180.631,404.329
				c-0.158,0-0.288,0.023-0.381,0.074c-0.084,0.046-0.126,0.114-0.135,0.221c-0.025,0.276,0.052,0.489,0.234,0.653
				c0.523,0.471,1.941,0.553,3.852,0.235C183.018,404.946,181.447,404.329,180.631,404.329z"/>
			<path style="fill:#407BFF;" d="M184.84,405.809c-0.029,0-0.057-0.006-0.084-0.018c-1.027-0.464-3.059-2.323-2.9-3.3
				c0.038-0.231,0.201-0.519,0.767-0.576c0.415-0.044,0.799,0.076,1.131,0.353c1.083,0.902,1.282,3.223,1.29,3.321
				c0.006,0.072-0.027,0.142-0.086,0.184C184.923,405.796,184.881,405.809,184.84,405.809z M182.786,402.315
				c-0.04,0-0.081,0.002-0.123,0.006c-0.373,0.038-0.397,0.187-0.405,0.236c-0.096,0.586,1.284,2.048,2.331,2.683
				c-0.101-0.675-0.387-2.067-1.098-2.659C183.277,402.402,183.045,402.315,182.786,402.315z"/>
			<path style="fill:#263238;" d="M198.436,129.166l-1.526-0.832C196.91,128.334,197.464,129.793,198.436,129.166z"/>
			<g>
				<path style="fill:#407BFF;" d="M214.746,209.521l0.895,3.133c0.122,0.243-0.165,0.491-0.57,0.491h-36.027
					c-0.316,0-0.577-0.155-0.597-0.353l-0.316-3.133c-0.022-0.217,0.252-0.401,0.597-0.401h35.448
					C214.437,209.258,214.667,209.365,214.746,209.521z"/>
				<path style="opacity:0.2;" d="M214.746,209.521l0.895,3.133c0.122,0.243-0.165,0.491-0.57,0.491h-36.027
					c-0.316,0-0.577-0.155-0.597-0.353l-0.316-3.133c-0.022-0.217,0.252-0.401,0.597-0.401h35.448
					C214.437,209.258,214.667,209.365,214.746,209.521z"/>
			</g>
			<g>
				<g>
					<path style="fill:#407BFF;" d="M209.869,213.485h0.949c0.189,0,0.333-0.098,0.32-0.217l-0.445-4.071
						c-0.013-0.119-0.178-0.217-0.367-0.217h-0.949c-0.189,0-0.333,0.097-0.32,0.217l0.445,4.071
						C209.514,213.387,209.68,213.485,209.869,213.485z"/>
					<path style="opacity:0.4;fill:#FFFFFF;" d="M209.869,213.485h0.949c0.189,0,0.333-0.098,0.32-0.217l-0.445-4.071
						c-0.013-0.119-0.178-0.217-0.367-0.217h-0.949c-0.189,0-0.333,0.097-0.32,0.217l0.445,4.071
						C209.514,213.387,209.68,213.485,209.869,213.485z"/>
				</g>
				<g>
					<path style="fill:#407BFF;" d="M181.712,213.485h0.949c0.189,0,0.333-0.098,0.32-0.217l-0.445-4.071
						c-0.013-0.119-0.178-0.217-0.368-0.217h-0.949c-0.189,0-0.333,0.097-0.32,0.217l0.445,4.071
						C181.358,213.387,181.523,213.485,181.712,213.485z"/>
					<path style="opacity:0.4;fill:#FFFFFF;" d="M181.712,213.485h0.949c0.189,0,0.333-0.098,0.32-0.217l-0.445-4.071
						c-0.013-0.119-0.178-0.217-0.368-0.217h-0.949c-0.189,0-0.333,0.097-0.32,0.217l0.445,4.071
						C181.358,213.387,181.523,213.485,181.712,213.485z"/>
				</g>
				<g>
					<path style="fill:#407BFF;" d="M195.732,213.485h0.949c0.189,0,0.333-0.098,0.32-0.217l-0.445-4.071
						c-0.013-0.119-0.178-0.217-0.367-0.217h-0.949c-0.189,0-0.333,0.097-0.32,0.217l0.445,4.071
						C195.377,213.387,195.543,213.485,195.732,213.485z"/>
					<path style="opacity:0.4;fill:#FFFFFF;" d="M195.732,213.485h0.949c0.189,0,0.333-0.098,0.32-0.217l-0.445-4.071
						c-0.013-0.119-0.178-0.217-0.367-0.217h-0.949c-0.189,0-0.333,0.097-0.32,0.217l0.445,4.071
						C195.377,213.387,195.543,213.485,195.732,213.485z"/>
				</g>
			</g>
			<path style="fill:#FFB573;" d="M193.188,218.562l-8.501-3.799l2.423,8.423c0,0,5.397,1.225,7.746-1.481L193.188,218.562z"/>
			<path style="fill:#FFB573;" d="M224.509,169.689c0.394,2.954,0.699,5.917,1.051,8.876l0.904,8.893
				c0.315,2.962,0.556,5.934,0.834,8.901l0.376,4.455l0.093,1.114c0.011,0.111,0.044,0.577,0.053,0.893
				c0.011,0.346-0.02,0.692-0.042,1.036c-0.147,1.374-0.618,2.606-1.186,3.611c-1.165,2.015-2.612,3.285-4.008,4.385
				c-1.413,1.078-2.842,1.943-4.279,2.706c-2.887,1.497-5.777,2.677-8.71,3.655c-2.927,0.985-5.865,1.823-8.814,2.569
				c-2.974,0.695-5.902,1.348-8.955,1.817l-0.97-4.256c2.749-0.902,5.568-1.839,8.294-2.884c2.749-1.001,5.46-2.078,8.083-3.268
				c2.612-1.201,5.187-2.442,7.479-3.9c1.148-0.715,2.229-1.478,3.135-2.273c0.899-0.782,1.617-1.649,1.888-2.259
				c0.142-0.302,0.17-0.505,0.166-0.618c-0.016-0.028-0.004-0.054-0.015-0.08c-0.019-0.056,0.005,0.038-0.035-0.221l-0.161-1.107
				l-0.639-4.428c-0.398-2.955-0.835-5.905-1.196-8.864l-1.126-8.873c-0.325-2.963-0.697-5.921-0.98-8.89L224.509,169.689z"/>
			<path style="fill:#407BFF;" d="M220.427,159.305c3.507,1.066,7.719,13.143,7.719,13.143l-12.272,12.635
				c0,0-6.296-12.988-4.823-17.521C212.587,162.841,216.425,158.089,220.427,159.305z"/>
			<polygon style="fill:#FFB573;" points="177.655,216.511 180.065,223.454 187.11,223.186 184.687,214.762 			"/>
		</g>
	</g>
</g>
<g id="List_of_people">
	<g>
		<g>
			<g>
				<path style="fill:#263238;" d="M296.365,191.625c2.292-16.445-9.181-29.776-25.626-29.776h29.776h90.347
					c16.445,0,27.918,13.331,25.626,29.776H296.365z"/>
				<path style="opacity:0.7;fill:#407BFF;" d="M296.365,191.625c2.292-16.445-9.181-29.776-25.626-29.776h29.776h90.347
					c16.445,0,27.918,13.331,25.626,29.776H296.365z"/>
			</g>
			<path style="fill:#407BFF;" d="M270.739,161.849h90.348h29.775c-16.444,0-31.633,13.331-33.925,29.776l-27.154,194.837
				c-2.292,16.445-17.481,29.776-33.925,29.776h-60.572c-16.445,0-27.918-13.331-25.626-29.776l27.154-194.837
				C239.105,175.18,254.294,161.849,270.739,161.849z"/>
			<g>
				<path style="fill:#263238;" d="M270.231,386.462c-2.292,16.445,9.181,29.776,25.626,29.776h-29.776h-90.347
					c-16.445,0-27.918-13.331-25.626-29.776H270.231z"/>
				<path style="opacity:0.7;fill:#407BFF;" d="M270.231,386.462c-2.292,16.445,9.181,29.776,25.626,29.776h-29.776h-90.347
					c-16.445,0-27.918-13.331-25.626-29.776H270.231z"/>
			</g>
		</g>
		<g>
			<path style="opacity:0.4;fill:#FFFFFF;" d="M289.491,222.462h46.527c1.355,0,2.618-1.109,2.807-2.464l0,0
				c0.189-1.355-0.765-2.464-2.121-2.464h-46.527c-1.355,0-2.618,1.109-2.807,2.464l0,0
				C287.182,221.353,288.136,222.462,289.491,222.462z"/>
			<path style="opacity:0.4;fill:#FFFFFF;" d="M288.213,231.633h34.189c1.355,0,2.618-1.109,2.807-2.464l0,0
				c0.189-1.355-0.765-2.464-2.121-2.464H288.9c-1.355,0-2.618,1.109-2.807,2.464l0,0
				C285.903,230.525,286.858,231.633,288.213,231.633z"/>
		</g>
		<g>
			
				<ellipse transform="matrix(0.7313 -0.6821 0.6821 0.7313 -82.3533 236.9004)" style="opacity:0.4;fill:#FFFFFF;" cx="259.474" cy="222.965" rx="15.93" ry="13.859"/>
			<path style="fill:#FFFFFF;" d="M246.208,222.963c-0.319,2.291-0.038,4.442,0.723,6.319c1.661,4.135,5.651,6.947,10.695,6.947
				c5.043,0,9.817-2.812,12.631-6.947c1.284-1.877,2.164-4.028,2.484-6.319c1.021-7.328-4.09-13.266-11.417-13.266
				C253.995,209.697,247.229,215.635,246.208,222.963z"/>
			<path style="opacity:0.4;fill:#263238;" d="M249.819,228.033c1.275,3.172,4.336,5.33,8.205,5.33c3.869,0,7.532-2.158,9.691-5.33
				c-2.324-1.712-5.26-2.711-8.57-2.711C255.835,225.322,252.62,226.321,249.819,228.033z"/>
			<path style="opacity:0.4;fill:#263238;" d="M255.394,219.702c-0.349,2.504,1.398,4.534,3.902,4.534
				c2.504,0,4.817-2.03,5.166-4.534c0.349-2.504-1.398-4.534-3.902-4.534S255.743,217.198,255.394,219.702z"/>
		</g>
		<g>
			<path style="opacity:0.4;fill:#FFFFFF;" d="M283.906,262.534h15.696c1.355,0,2.618-1.109,2.807-2.464l0,0
				c0.189-1.355-0.765-2.464-2.12-2.464h-15.696c-1.355,0-2.618,1.109-2.807,2.464l0,0
				C281.597,261.425,282.551,262.534,283.906,262.534z"/>
			<path style="opacity:0.4;fill:#FFFFFF;" d="M309.073,262.534h22.421c1.355,0,2.618-1.109,2.807-2.464l0,0
				c0.189-1.355-0.765-2.464-2.121-2.464H309.76c-1.355,0-2.618,1.109-2.807,2.464l0,0
				C306.763,261.425,307.718,262.534,309.073,262.534z"/>
			<path style="opacity:0.4;fill:#FFFFFF;" d="M282.628,271.705h38.435c1.355,0,2.618-1.109,2.807-2.464l0,0
				c0.189-1.355-0.765-2.464-2.121-2.464h-38.435c-1.355,0-2.618,1.109-2.807,2.464l0,0
				C280.319,270.596,281.273,271.705,282.628,271.705z"/>
		</g>
		<g>
			
				<ellipse transform="matrix(0.7313 -0.6821 0.6821 0.7313 -111.1862 243.8551)" style="opacity:0.4;fill:#FFFFFF;" cx="253.889" cy="263.036" rx="15.93" ry="13.859"/>
			<path style="fill:#FFFFFF;" d="M240.623,263.035c-0.319,2.291-0.038,4.442,0.723,6.319c1.661,4.135,5.652,6.947,10.695,6.947
				c5.043,0,9.817-2.812,12.631-6.947c1.284-1.877,2.164-4.028,2.484-6.319c1.021-7.328-4.089-13.266-11.417-13.266
				C248.41,249.769,241.644,255.707,240.623,263.035z"/>
			<path style="opacity:0.4;fill:#263238;" d="M244.234,268.104c1.275,3.172,4.336,5.33,8.205,5.33s7.532-2.158,9.691-5.33
				c-2.324-1.712-5.26-2.711-8.571-2.711C250.25,265.393,247.036,266.393,244.234,268.104z"/>
			<path style="opacity:0.4;fill:#263238;" d="M249.81,259.774c-0.349,2.504,1.398,4.534,3.902,4.534
				c2.504,0,4.817-2.03,5.166-4.534c0.349-2.504-1.398-4.534-3.902-4.534S250.159,257.27,249.81,259.774z"/>
		</g>
		<g>
			<path style="opacity:0.4;fill:#FFFFFF;" d="M278.322,302.605h27.329c1.355,0,2.618-1.109,2.807-2.464l0,0
				c0.189-1.355-0.765-2.464-2.12-2.464h-27.329c-1.355,0-2.618,1.109-2.807,2.464l0,0
				C276.012,301.496,276.966,302.605,278.322,302.605z"/>
			<path style="opacity:0.4;fill:#FFFFFF;" d="M277.043,311.777h42.604c1.355,0,2.618-1.109,2.807-2.464l0,0
				c0.189-1.355-0.765-2.464-2.121-2.464H277.73c-1.355,0-2.618,1.109-2.807,2.464l0,0
				C274.734,310.668,275.688,311.777,277.043,311.777z"/>
		</g>
		<g>
			<path style="opacity:0.2;fill:#FFFFFF;" d="M230.39,350.819h65.242c1.9,0,3.672-1.555,3.936-3.455l0,0
				c0.265-1.9-1.073-3.455-2.973-3.455h-65.242c-1.9,0-3.672,1.555-3.936,3.455l0,0C227.152,349.264,228.49,350.819,230.39,350.819z
				"/>
			<path style="opacity:0.2;fill:#FFFFFF;" d="M228.598,363.68h47.94c1.9,0,3.672-1.555,3.936-3.455l0,0
				c0.265-1.9-1.073-3.455-2.974-3.455h-47.94c-1.9,0-3.672,1.555-3.936,3.455l0,0C225.36,362.125,226.698,363.68,228.598,363.68z"
				/>
			<path style="opacity:0.2;fill:#FFFFFF;" d="M253.072,193.412h77.784c0.983,0,1.899-0.804,2.036-1.787l0,0
				c0.137-0.983-0.555-1.787-1.538-1.787H253.57c-0.983,0-1.899,0.804-2.036,1.787l0,0
				C251.397,192.608,252.089,193.412,253.072,193.412z"/>
		</g>
		<g>
			
				<ellipse transform="matrix(0.7313 -0.6821 0.6821 0.7313 -140.0195 250.8186)" style="opacity:0.4;fill:#FFFFFF;" cx="248.304" cy="303.108" rx="15.93" ry="13.859"/>
			<path style="fill:#FFFFFF;" d="M235.038,303.107c-0.319,2.291-0.038,4.442,0.722,6.319c1.661,4.135,5.651,6.947,10.695,6.947
				c5.043,0,9.817-2.812,12.631-6.947c1.284-1.877,2.164-4.028,2.484-6.319c1.021-7.328-4.089-13.266-11.417-13.266
				C242.826,289.84,236.06,295.779,235.038,303.107z"/>
			<path style="opacity:0.4;fill:#263238;" d="M238.65,308.176c1.275,3.172,4.336,5.33,8.206,5.33s7.532-2.158,9.691-5.33
				c-2.324-1.712-5.26-2.711-8.57-2.711C244.665,305.465,241.451,306.464,238.65,308.176z"/>
			<path style="opacity:0.4;fill:#263238;" d="M244.225,299.846c-0.349,2.504,1.398,4.534,3.902,4.534
				c2.504,0,4.817-2.03,5.166-4.534c0.349-2.504-1.398-4.534-3.902-4.534S244.574,297.342,244.225,299.846z"/>
		</g>
	</g>
</g>
</svg>
